<svg xmlns="http://www.w3.org/2000/svg" viewBox="0 0 120 140">
  <rect x="28" y="60" width="64" height="55" rx="10" fill="#161b22" stroke="#58a6ff" stroke-width="2"/>
  <rect x="33" y="20" width="54" height="45" rx="10" fill="#161b22" stroke="#58a6ff" stroke-width="2"/>
  <line x1="60" y1="20" x2="60" y2="6" stroke="#58a6ff" stroke-width="2"/>
  <circle cx="60" cy="4" r="5" fill="#58a6ff"/>
  <circle cx="60" cy="4" r="3" fill="none" stroke="#0d1117" stroke-width="0.8"/>
  <rect x="38" y="30" width="15" height="11" rx="4" fill="#58a6ff"/>
  <rect x="67" y="30" width="15" height="11" rx="4" fill="#3fb950"/>
  <circle cx="44" cy="33" r="2" fill="white" opacity="0.5"/>
  <circle cx="73" cy="33" r="2" fill="white" opacity="0.5"/>
  <path d="M44,48 Q60,56 76,48" fill="none" stroke="#58a6ff" stroke-width="2" stroke-linecap="round"/>
  <circle cx="60" cy="80" r="12" fill="none" stroke="#58a6ff" stroke-width="1" opacity="0.4"/>
  <circle cx="60" cy="80" r="6" fill="none" stroke="#58a6ff" stroke-width="1" opacity="0.6"/>
  <line x1="60" y1="68" x2="60" y2="92" stroke="#58a6ff" stroke-width="0.8" opacity="0.3"/>
  <line x1="48" y1="80" x2="72" y2="80" stroke="#58a6ff" stroke-width="0.8" opacity="0.3"/>
  <circle cx="60" cy="80" r="3" fill="#58a6ff"/>
  <rect x="10" y="65" width="20" height="10" rx="5" fill="#161b22" stroke="#58a6ff" stroke-width="1.5"/>
  <rect x="90" y="65" width="20" height="10" rx="5" fill="#161b22" stroke="#3fb950" stroke-width="1.5"/>
  <rect x="36" y="112" width="18" height="10" rx="5" fill="#161b22" stroke="#58a6ff" stroke-width="1.5"/>
  <rect x="66" y="112" width="18" height="10" rx="5" fill="#161b22" stroke="#58a6ff" stroke-width="1.5"/>
</svg>
